<?xml version="1.0" encoding="utf-8"?>
<!-- Generator: Adobe Illustrator 24.1.2, SVG Export Plug-In . SVG Version: 6.00 Build 0)  -->
<svg version="1.1" id="Layer_1" xmlns="http://www.w3.org/2000/svg" xmlns:xlink="http://www.w3.org/1999/xlink" x="0px" y="0px"
	 viewBox="0 0 109.78 140.67" style="enable-background:new 0 0 109.78 140.67;" xml:space="preserve">
<style type="text/css">
	.st0{fill:#A42E43;}
	.st1{fill:#FFFFFF;}
</style>
<g>
	<path class="st0" d="M107,36.53c1.06-2.52,1.86-5.23,1.21-7.89c-1.98-8.07-4.75-15.88-8.95-23.1c-1.53-2.63-4-3.98-6.97-3.99
		C76.71,1.48,61.14,1.52,45.56,1.53c-0.5,0-1,0.1-1.49,0.22c-2.95,0.69-4.94,2.54-6.16,5.24c-0.43,0.96-1.03,1.21-2.02,1.18
		c-2.14-0.07-4.29-0.09-6.43,0.01c-1.18,0.05-1.73-0.31-1.99-1.5c-0.25-1.12-0.66-2.12-2.28-2.15c-1.71-0.03-2.61,0.56-2.87,2.18
		c-0.19,1.18-0.84,1.48-2.01,1.47C15.6,8.1,10.9,8.21,6.2,8.11c-1.71-0.04-2.5,0.71-2.96,2.2c-0.78,2.51-0.76,5.05-0.19,7.55
		c0.55,2.41,1.13,2.73,3.63,2.73c4.44,0,8.89,0.05,13.33-0.03c1.33-0.03,2.04,0.28,2.37,1.65c0.26,1.09,0.82,1.98,2.29,2.04
		c1.68,0.07,2.37-0.77,2.84-2.18c0.18-0.54,0.63-1.31,1.07-1.39c1.06-0.2,2.19-0.07,3.43-0.07c-0.1,0.41-0.15,0.64-0.21,0.87
		c-0.69,2.65-1.61,5.26-2.01,7.95c-0.49,3.28,0.91,6.26,2.08,9.26c5.22,13.36,7.87,27.22,7.9,41.56
		c0.03,17.62-0.01,35.24-0.01,52.86c0,3.51,1.69,5.3,5.22,5.31c16.04,0.04,32.07,0.05,48.11,0.03c3.46,0,5.15-1.81,5.15-5.24
		c0-17.26,0.02-34.53-0.03-51.79c-0.02-7.87,0.78-15.64,2.31-23.36C101.98,50.68,104.08,43.49,107,36.53z"/>
	<path class="st1" d="M68.97,36.93c-5.52,0-11.03,0-16.55,0c-2.76,0-4.05-1.05-4.1-3.79c-0.1-5.67-0.1-11.34-0.01-17
		c0.04-2.67,1.42-3.87,4.07-3.87c11.03-0.01,22.06-0.01,33.09,0c2.89,0,4.12,1.18,4.14,4.06c0.03,5.41,0.04,10.83,0,16.24
		c-0.03,3.37-1.08,4.37-4.4,4.37C79.8,36.93,74.39,36.92,68.97,36.93z"/>
	<path class="st1" d="M69.05,56.06c4.84-0.11,9.07,3.8,9.05,9c-0.03,5.23-3.84,9.09-9.15,9.09c-5.17,0-9.04-3.97-9.03-9.2
		C59.93,59.78,64.19,55.89,69.05,56.06z M68.83,71.74c3.88,0.04,6.83-2.73,6.86-6.45c0.03-3.74-3.03-6.98-6.62-7.01
		c-3.52-0.03-6.72,3.06-6.77,6.53C62.26,68.79,65,71.7,68.83,71.74z"/>
	<path class="st0" d="M68.83,71.74c-3.84-0.04-6.57-2.95-6.52-6.94c0.05-3.47,3.25-6.56,6.77-6.53c3.59,0.03,6.65,3.28,6.62,7.01
		C75.67,69.01,72.72,71.78,68.83,71.74z"/>
	<ellipse class="st1" cx="5.08" cy="14.13" rx="1.28" ry="4.9"/>
</g>
</svg>
