<?xml version="1.0" encoding="utf-8"?>
<!-- Generator: Adobe Illustrator 24.1.2, SVG Export Plug-In . SVG Version: 6.00 Build 0)  -->
<svg version="1.1" id="Layer_1" xmlns="http://www.w3.org/2000/svg" xmlns:xlink="http://www.w3.org/1999/xlink" x="0px" y="0px"
	 viewBox="0 0 115.33 78.56" style="enable-background:new 0 0 115.33 78.56;" xml:space="preserve">
<style type="text/css">
	.st0{fill:#A42E43;}
	.st1{fill:none;stroke:#FFFFFF;stroke-miterlimit:10;}
	.st2{fill:none;}
	.st3{fill:#FFFFFF;}
	.st4{font-family:'MyriadPro-Regular';}
	.st5{font-size:11.8304px;}
</style>
<g>
	<path class="st0" d="M113.07,36.11c-0.12-0.07-0.11-0.16-0.15-0.25c-0.42-0.84-0.63-1.8-1.48-2.38c-0.28-0.19-0.22-0.55-0.17-0.85
		c0.05-0.31,0.34-0.26,0.57-0.32c0.25-0.06,0.51-0.13,0.73-0.25c0.33-0.19,0.73-0.4,0.67-0.86c-0.06-0.47-0.52-0.45-0.86-0.55
		c-0.25-0.07-0.51-0.1-0.77-0.13c-0.24-0.03-0.49-0.02-0.76-0.28c0.98,0.01,1.47-0.46,1.7-1.3c0.1-0.39,0.33-0.75,0.55-1.1
		c0.53-0.85,0.52-1.2-0.27-1.82c-0.5-0.39-0.53-0.76-0.1-1.18c0.28-0.28,0.29-0.56,0.08-0.87c-0.21-0.31-0.51-0.41-0.85-0.28
		c-0.32,0.12-0.63,0.29-0.93,0.45c-0.59,0.32-1.37,0.22-1.65-0.37c-0.33-0.7-0.88-0.75-1.49-0.79c-0.49-0.03-0.93-0.12-1.22-0.6
		c-0.25-0.41-0.62-0.36-0.94-0.09c-0.38,0.32-0.74,0.29-1.13,0.06c-0.41-0.24-0.82-0.48-1.23-0.72c-0.11-0.07-0.27-0.22-0.32-0.19
		c-0.77,0.48-1.18-0.16-1.69-0.51c-0.83-0.57-1.54-0.25-1.69,0.75c-0.04,0.3-0.21,0.52-0.45,0.32c-0.56-0.48-1.28-0.63-1.86-1.05
		c-0.31-0.22-0.47-0.5-0.43-0.88c0.08-0.61-0.17-1-0.75-1.19c-0.16-0.05-0.38-0.07-0.31-0.32c0.11-0.38,0.07-0.72-0.34-0.86
		c-0.43-0.15-0.78-0.02-1.09,0.34c-0.46,0.52-1.05,0.83-1.75,0.89c-0.47,0.04-0.92,0.17-1.26,0.48c-0.55,0.5-1.01,0.64-1.78,0.35
		c-0.64-0.25-1.27-0.43-1.83-0.88c-0.89-0.72-2.02-0.6-2.82,0.21c-0.11,0.11-0.16,0.32-0.39,0.29c-0.66-0.07-1.37-1.28-1.06-1.88
		c0.36-0.69,0.19-1.25-0.31-1.77c-0.18-0.19-0.38-0.35-0.55-0.55c-0.29-0.33-0.47-0.64-0.04-1.05c0.35-0.34,0.23-0.79-0.22-1.01
		c-0.27-0.13-0.58-0.17-0.87-0.24c-0.2-0.05-0.39-0.07-0.47-0.35c-0.2-0.75-0.41-0.86-1.16-0.69c-0.47,0.11-0.95,0.26-1.39,0.01
		c-0.52-0.3-1.06-0.47-1.66-0.46c-0.14,0-0.29,0.04-0.35-0.19c-0.18-0.75-0.78-1.4-0.5-2.25c0.01-0.03-0.01-0.09-0.03-0.12
		c-0.36-0.54-0.13-0.75,0.43-0.8c0.36-0.03,0.6-0.26,0.65-0.62c0.05-0.34-0.02-0.63-0.35-0.84c-0.49-0.31-0.93-0.71-1.32-1.15
		c-0.3-0.34-0.74-0.7-0.67-1.15c0.16-0.95-0.23-1.57-0.95-2.09c-0.1-0.07-0.17-0.2-0.24-0.3C73,1.1,72.71,1.03,71.91,1.58
		c-0.4,0.28-0.76,0.37-1.18,0.08c-0.17-0.12-0.4-0.16-0.6-0.24c-0.86-0.31-1.08-0.25-1.69,0.43c-0.53,0.6-1.2,0.75-1.94,0.42
		c-0.36-0.16-0.7-0.33-1.06-0.5c-0.57-0.27-1-0.1-1.35,0.4C63.73,2.7,63.7,3.3,63.72,3.91c0.01,0.28,0,0.51-0.29,0.65
		c-0.46,0.23-1.11,0.11-1.44-0.32c-0.2-0.26-0.45-0.31-0.73-0.34c-1.59-0.17-3.09,0.48-4.65,0.52c-0.4,0.01-0.7,0.35-0.92,0.67
		c-1.37,1.98-2.3,4.07-1.75,6.57c0.03,0.13,0.18,0.31-0.01,0.4c-0.17,0.08-0.36-0.02-0.45-0.16c-0.21-0.33-0.38-0.68-0.56-1.02
		c-0.5-0.92-1.04-1.14-2.04-0.79c-0.47,0.16-0.92,0.19-1.4,0.07c-0.74-0.19-1.46-0.24-2.01,0.46c-0.23,0.28-0.42,0.14-0.53-0.13
		c-0.07-0.18-0.11-0.37-0.13-0.56c-0.06-0.6-0.18-1.18-0.84-1.41c-0.67-0.24-1.24,0.02-1.72,0.47c-0.31,0.29-0.59,0.63-0.88,0.94
		c-0.55-0.66-0.54-0.67-1.71-0.83c-0.21-0.03-0.21-0.19-0.28-0.31c-0.43-0.72-0.91-0.81-1.55-0.25c-0.27,0.23-0.6,0.37-0.89,0.14
		c-0.37-0.29-0.62-0.28-0.87,0.12C38,8.89,37.89,8.95,37.79,8.84c-0.57-0.63-1.33-0.52-2.06-0.53c-0.38-0.01-0.66-0.16-0.79-0.54
		c-0.31-0.93-1.01-1.25-1.92-1.18c-1.13,0.09-2.18-0.15-3.21-0.61c-0.73-0.32-1.48-0.59-2.26-0.8c-2.54-0.68-5.14-0.62-7.74-0.68
		c-1.19-0.03-2.02,0.4-2.69,1.35c-0.81,1.15-0.9,1.15-2.2,0.62c-1.18-0.48-1.94,0.04-1.87,1.31c0.04,0.73,0.14,1.46,0.23,2.19
		c0.15,1.22,0.61,2.29,1.52,3.14c0.25,0.23,0.46,0.52,0.66,0.8c0.18,0.25,0.17,0.49-0.15,0.63c-0.38,0.16-0.44,0.31-0.17,0.69
		c0.82,1.21,0.13,2.66-1.33,2.84c-0.27,0.03-0.49,0.11-0.69,0.29c-2.14,1.89-4.28,3.78-6.43,5.67c-0.77,0.68-1.11,1.52-1.06,2.54
		c0.05,1.15-0.09,2.32,0.25,3.46c-1.39,0.02-2.37,0.8-2.56,2.07c-0.08,0.56-0.33,0.96-0.74,1.31c-0.27,0.24-0.52,0.52-0.75,0.8
		c-0.52,0.62-0.56,1.27-0.14,1.98c0.41,0.69,0.88,1.34,1.45,1.91c0.23,0.23,0.49,0.45,0.54,0.79c0.1,0.65,0.5,0.94,1.1,0.98
		c0.41,0.03,0.67,0.2,0.84,0.58c0.17,0.38,0.47,0.64,0.92,0.56c0.36-0.06,0.61-0.32,0.85-0.57c0.32-0.34,0.58-0.33,0.78,0.12
		c0.31,0.7,0.88,0.97,1.6,1.02c0.78,0.05,1.54,0.23,2.29,0.46c1.13,0.34,2.27,0.57,3.45,0.43c0.71-0.08,1.18,0.22,1.53,0.84
		c1.01,1.74,1.59,1.86,3.22,0.66c0.7-0.52,1.43-0.86,2.33-0.82c0.78,0.03,1.56,0.05,2.34-0.01c1.37-0.11,2.51-0.65,3.1-2
		c0.1-0.23,0.27-0.4,0.5-0.47c1.84-0.55,3.64-1.26,5.53-1.65c1.1-0.23,2.12,0,2.98,0.74c0.56,0.48,1.09,0.99,1.63,1.49
		c0.83,0.76,1.77,1.15,2.91,0.87c0.65-0.16,1.09,0.05,1.3,0.72c0.17,0.56,0.5,0.94,1.15,0.96c0.86,0.02,1.22,0.41,1.22,1.28
		c0,0.53-0.2,1.02-0.31,1.52c-0.4,1.79,0.29,2.95,2.06,3.41c0.27,0.07,0.38,0.17,0.35,0.43c-0.03,0.21-0.05,0.43-0.08,0.64
		c-0.24,1.57,0.19,2.4,1.59,3.1c0.83,0.41,1.18,1.3,0.75,2.11c-0.24,0.46-0.39,0.88-0.11,1.4c-0.7-0.46-1.24-0.26-1.72,0.26
		c-0.68-1.05-0.8-1.09-1.95-0.53c-0.27,0.13-0.33-0.01-0.46-0.15c-0.38-0.43-0.84-0.57-1.4-0.4c-0.55,0.17-0.73,0.59-0.75,1.09
		c-0.03,0.84-0.05,1.69-0.05,2.53c0,0.46-0.09,0.79-0.6,0.93c-0.39,0.11-0.69,0.42-0.75,0.83c-0.1,0.75-0.51,1.31-1.03,1.82
		c-0.31,0.31-0.54,0.69-0.67,1.1c-0.16,0.53-0.49,0.77-1,0.96c-1.07,0.39-1.29,1.25-0.61,2.17c0.44,0.59,1.01,1,1.72,1.21
		c1.24,0.37,2.29-0.11,3.31-0.73c0.61-0.37,1.22-0.75,1.93-0.9c0.86-0.19,1.49,0.06,1.93,0.82c0.24,0.42,0.44,0.87,0.66,1.31
		c0.88-0.56,0.89-1.39,0.79-2.22c-0.1-0.92,0.16-1.66,0.93-2.2c0.21-0.15,0.4-0.33,0.6-0.5c2.32-1.99,4.45-4.13,5.3-7.2
		c0.09-0.31,0.3-0.51,0.63-0.59c2.35-0.58,4.73-0.83,7.14-0.6c0.47,0.04,0.97,0.09,1.38,0.55c-0.35,0-0.63,0.01-0.9,0
		c-0.93-0.03-1.86-0.05-2.79-0.09c-0.25-0.01-0.45-0.01-0.51,0.33c-0.05,0.31,0.13,0.36,0.34,0.44c0.26,0.1,0.53,0.2,0.78,0.33
		c0.15,0.07,0.28,0.14,0.13,0.39c-0.41,0.69-0.33,0.88,0.36,1.25c0.65,0.35,1.27,0.74,1.94,1.06c1.34,0.65,2.75,0.9,4.23,0.61
		c0.57-0.11,1.13-0.27,1.7-0.41c0.7-0.17,1.36-0.15,1.95,0.36c0.34,0.3,0.8,0.38,1.23,0.23c0.51-0.17,0.6,0.21,0.73,0.5
		c0.2,0.42-0.24,0.4-0.42,0.48c-2.15,0.99-4.2,2.15-6.16,3.47c-0.36,0.24-0.72,0.49-0.97,0.85c-0.5,0.72-0.37,1.37,0.39,1.79
		c0.65,0.36,1.34,0.53,2.06,0.26c0.7-0.27,1.23-0.07,1.65,0.49c0.48,0.64,1.12,0.91,1.9,0.95c0.78,0.03,1.43,0.5,1.48,1.28
		c0.05,0.98-0.43,1.9-0.6,2.86c-0.01,0.05-0.09,0.08-0.14,0.13c-0.63,0.56-0.66,1.09,0.01,1.59c1.65,1.23,4.22,1.96,6.13-0.4
		c0.54-0.67,1.05-1.38,1.64-2.01c0.63-0.68,1.39-1.3,2.38-1.04c1.04,0.28,1.71-0.09,2.29-0.87c0.21-0.28,0.41-0.56,0.63-0.83
		c0.82-1.06,1.18-1.16,2.33-0.51c0.63,0.35,1.24,0.42,1.93,0.27c0.59-0.13,1.19-0.2,1.79-0.29c1-0.16,1.16-0.34,1.1-1.37
		c-0.04-0.77-0.07-1.49,0.71-2c0.31-0.21,0.49-0.67,0.19-1.04c-0.72-0.89-2.83-0.97-3.67-0.12c-0.29,0.3-0.48,0.32-0.81,0.1
		c-0.9-0.57-1.2-0.49-1.89,0.38c-0.56,0.72-1.41,0.81-2.09,0.19c-0.21-0.19-0.4-0.4-0.56-0.63c-0.77-1.1-1.53-2.21-2.29-3.31
		c-0.51-0.73-0.73-1.55-0.8-2.44c-0.03-0.34,0.04-0.57,0.38-0.72c0.54-0.23,0.99-0.61,1.42-1.02c0.15-0.15,0.26-0.32,0.54-0.18
		c0.47,0.23,0.75-0.06,1.04-0.4c1.1-1.33,2.49-2.26,4.09-2.87c0.2-0.08,0.42-0.16,0.61,0.01c0.48,0.44,0.81,0.17,1.13-0.23
		c0.66-0.83,1.43-1.08,2.42-0.79c0.52,0.15,1.07-0.12,1.38-0.71c0.28-0.53,0.64-0.98,1.17-1.27c0.17-0.09,0.34-0.17,0.55-0.15
		c1.08,0.1,1.35-0.06,1.69-1.09c0.13-0.4,0.31-0.64,0.75-0.67c0.71-0.05,1.43-0.03,2.1-0.34c0.14-0.06,0.29-0.02,0.44,0.03
		c0.82,0.31,1.37,0.04,1.62-0.78c0.15-0.53,0.07-1.11,0.43-1.6c0.14-0.18,0.01-0.45-0.17-0.57c-0.4-0.26-0.34-0.61-0.24-0.97
		c0.09-0.36,0.23-0.7,0.3-1.06c0.11-0.61,0.45-0.8,1.05-0.79c0.83,0.02,1.15-0.27,1.38-1.08c0.1-0.33,0.21-0.66,0.32-0.99
		c0.17-0.55,0.53-0.72,1.09-0.62c1.23,0.2,2.45,0.17,3.67-0.13c1.33-0.33,1.35-0.32,1.36-1.71c0-0.13,0-0.26,0-0.39
		c-0.03-0.75,0.05-1.44,0.58-2.06C113.79,36.8,113.67,36.48,113.07,36.11z"/>
	<g>
		<path class="st1" d="M93.43,37.91H38.34c-1.76,0-3.19-1.43-3.19-3.19v-8.35c0-1.76,1.43-3.19,3.19-3.19h55.09
			c1.76,0,3.19,1.43,3.19,3.19v8.35C96.62,36.48,95.19,37.91,93.43,37.91z"/>
		<rect x="36.71" y="26.3" class="st2" width="58.36" height="8.5"/>
		<text transform="matrix(1 0 0 1 37.733 34.6951)" class="st3 st4 st5">XX 1234 XX</text>
	</g>
</g>
</svg>
