<?xml version="1.0" encoding="utf-8"?>
<!-- Generator: Adobe Illustrator 24.1.2, SVG Export Plug-In . SVG Version: 6.00 Build 0)  -->
<svg version="1.1" id="Layer_1" xmlns="http://www.w3.org/2000/svg" xmlns:xlink="http://www.w3.org/1999/xlink" x="0px" y="0px"
	 viewBox="0 0 199.41 55" style="enable-background:new 0 0 199.41 55;" xml:space="preserve">
<style type="text/css">
	.st0{fill:none;}
	.st1{fill:#A42E43;}
	.st2{fill:none;stroke:#000000;stroke-width:2;stroke-linecap:round;stroke-linejoin:round;stroke-miterlimit:10;}
	.st3{fill:#A42E43;stroke:#A42E43;stroke-miterlimit:10;}
	.st4{fill:none;stroke:#A42E43;stroke-miterlimit:10;}
</style>
<g>
	<line class="st0" x1="93.11" y1="25.33" x2="93.11" y2="25.33"/>
	<path class="st1" d="M78.51,17.54c2.16,2.02,3.24,5.36,3.24,10c0,2.92-0.56,5.36-1.67,7.3c-1.12,1.94-2.64,3.39-4.59,4.32
		c-1.94,0.94-4.15,1.41-6.62,1.41H64.2c-1.25,0-2.26-1.08-2.26-2.41V16.91c0-1.33,1.01-2.41,2.26-2.41h5.08
		C73.27,14.5,76.35,15.52,78.51,17.54z M73.37,35.9c1.32-0.51,2.34-1.43,3.06-2.76c0.72-1.33,1.07-3.2,1.07-5.61
		c0-3.22-0.66-5.54-1.99-6.98c-1.32-1.43-3.37-2.15-6.14-2.15h-1.35c-1.11,0-2,0.96-2,2.13v13.72c0,1.33,1.01,2.41,2.26,2.41l0,0
		C70.35,36.67,72.05,36.41,73.37,35.9z"/>
	<path class="st1" d="M96.88,19.73c-0.4-0.25-0.71-0.59-0.95-1.02c-0.24-0.43-0.36-0.89-0.36-1.39s0.12-0.96,0.36-1.39
		c0.24-0.43,0.56-0.78,0.95-1.04c0.4-0.26,0.82-0.39,1.28-0.39c0.48,0,0.92,0.13,1.33,0.39c0.41,0.26,0.73,0.61,0.97,1.04
		c0.24,0.43,0.36,0.89,0.36,1.39s-0.12,0.96-0.36,1.39c-0.24,0.43-0.56,0.77-0.97,1.02c-0.41,0.25-0.85,0.37-1.33,0.37
		C97.7,20.1,97.27,19.98,96.88,19.73z M96.28,39.57V23.08c0-0.51,0.38-0.93,0.88-0.99l1.88-0.22c0.59-0.07,1.12,0.39,1.12,0.99
		v16.71c0,0.55-0.45,1-1,1h-1.88C96.73,40.57,96.28,40.12,96.28,39.57z"/>
	<path class="st1" d="M132.1,25.55c-0.53-1.16-1.31-2.06-2.34-2.71c-1.03-0.65-2.29-0.98-3.78-0.98c-1.65,0-3.07,0.42-4.24,1.24
		c-1.18,0.82-2.07,1.95-2.66,3.41c-0.6,1.44-0.9,3.1-0.9,4.95c0,2.15,0.34,3.9,1.04,5.25c0.69,1.35,1.64,2.34,2.82,2.95
		c1.19,0.61,2.55,0.91,4.08,0.91c1.25,0,2.41-0.19,3.47-0.59c0.81-0.3,1.55-0.68,2.24-1.12c0.39-0.26,0.51-0.77,0.31-1.2l-0.54-1.09
		c-0.25-0.51-0.9-0.7-1.4-0.43c-0.52,0.29-1.01,0.51-1.45,0.67c-0.7,0.25-1.47,0.38-2.34,0.38c-1.2,0-2.2-0.41-3-1.23
		c-0.62-0.64-1.03-1.55-1.23-2.75c-0.1-0.58,0.38-1.11,0.99-1.11h8.67c0.53,0,0.97-0.4,1-0.91c0.03-0.62,0.05-1.2,0.05-1.76
		C132.89,27.99,132.62,26.7,132.1,25.55z M128.96,28.17c0,0.21-0.04,0.4-0.21,0.61c-0.2,0.24-0.5,0.33-0.72,0.33h-4.55
		c-0.65,0-1.15-0.6-0.97-1.21c0.23-0.75,0.55-1.37,0.96-1.86c0.61-0.72,1.44-1.07,2.47-1.07c0.94,0,1.68,0.33,2.23,0.98
		c0.39,0.45,0.64,1.07,0.77,1.88c0.02,0.12,0.02,0.15,0.02,0.25l0,0V28.17z"/>
	<path class="st1" d="M148.75,15.7c1.32,0.68,2.31,1.63,2.97,2.84c0.66,1.21,0.99,2.62,0.99,4.22c0,1.65-0.34,3.13-1.01,4.44
		c-0.67,1.31-1.69,2.34-3.06,3.1c-1.37,0.76-3.03,1.14-5,1.14h-2.63c-0.55,0-1,0.47-1,1.06v7.04c0,0.58-0.45,1.06-1,1.06h-2.1
		c-0.55,0-1-0.47-1-1.06V15.73c0-0.58,0.45-1.06,1-1.06h6.95C145.8,14.68,147.43,15.02,148.75,15.7z M148.47,22.91
		c0-1.46-0.4-2.58-1.19-3.34c-0.79-0.76-1.96-1.14-3.49-1.14h-2.78c-0.55,0-1,0.47-1,1.06v7.12c0,0.58,0.45,1.06,1,1.06h2.27
		C146.74,27.67,148.47,26.08,148.47,22.91z"/>
	<path class="st1" d="M195.37,23.03c0.98,0.76,1.71,1.81,2.18,3.16c0.47,1.35,0.7,2.9,0.7,4.66c0,2.16-0.38,3.98-1.15,5.46
		c-0.77,1.48-1.78,2.58-3.04,3.3c-1.26,0.72-2.66,1.08-4.19,1.08c-0.61,0-1.24-0.06-1.9-0.19c-0.61-0.12-1.19,0.34-1.19,0.96v5.18
		c0,0.54-0.45,0.98-1,0.98h-1.89c-0.55,0-1-0.44-1-0.98V23.36c0-0.5,0.38-0.92,0.88-0.98l1.89-0.21c0.59-0.07,1.11,0.39,1.11,0.98
		v0.46c0.82-0.56,1.64-0.99,2.48-1.28c0.84-0.29,1.65-0.44,2.45-0.44C193.16,21.89,194.39,22.27,195.37,23.03z M192.9,35.78
		c0.88-1.09,1.32-2.72,1.32-4.88c0-1.95-0.31-3.35-0.92-4.22c-0.62-0.87-1.55-1.3-2.8-1.3c-1.03,0-2.11,0.32-3.24,0.95
		c-0.31,0.17-0.49,0.5-0.49,0.85v9.08c0,0.47,0.34,0.87,0.81,0.97c0.62,0.13,1.22,0.2,1.79,0.2
		C190.85,37.42,192.02,36.87,192.9,35.78z"/>
	<path class="st1" d="M117.75,22.87c0,0.11-0.02,0.22-0.06,0.33c0,0.02-0.01,0.04-0.02,0.05l-5.58,16.63
		c-0.14,0.43-0.53,0.7-0.95,0.7h-2.32c-0.42,0-0.8-0.27-0.95-0.69l-5.75-16.85c-0.01-0.05-0.02-0.11-0.02-0.17
		c0-0.55,0.43-0.99,0.96-0.99h2.19c0.44,0,0.83,0.29,0.96,0.73l2.93,9.68c0,0,0.18,0.77,0.94,0.8c0.68-0.01,0.92-0.71,0.92-0.71
		c0.12-0.5,0.02-0.09,0.21-0.88l2.41-8.87c0.13-0.45,0.52-0.75,0.97-0.75h2.14v0.01c0.02-0.01,0.04-0.01,0.06-0.01
		C117.32,21.88,117.75,22.32,117.75,22.87z"/>
	<path class="st1" d="M180.17,25.56c-0.53-1.16-1.31-2.06-2.34-2.71c-1.03-0.65-2.29-0.98-3.78-0.98c-1.65,0-3.07,0.42-4.24,1.24
		c-1.18,0.82-2.07,1.95-2.66,3.41c-0.6,1.44-0.9,3.1-0.9,4.95c0,2.15,0.34,3.9,1.04,5.25c0.69,1.35,1.64,2.34,2.82,2.95
		c1.19,0.61,2.55,0.91,4.08,0.91c1.25,0,2.41-0.19,3.47-0.59c0.81-0.3,1.55-0.68,2.24-1.12c0.39-0.26,0.51-0.77,0.31-1.2l-0.54-1.09
		c-0.25-0.51-0.9-0.7-1.4-0.43c-0.52,0.29-1.01,0.51-1.45,0.67c-0.7,0.25-1.47,0.38-2.34,0.38c-1.2,0-2.2-0.41-3-1.23
		c-0.62-0.64-1.03-1.55-1.23-2.75c-0.1-0.58,0.38-1.11,0.99-1.11h8.67c0.53,0,0.97-0.4,1-0.91c0.03-0.62,0.05-1.2,0.05-1.76
		C180.96,28.01,180.69,26.71,180.17,25.56z M177.03,28.18c0,0.21-0.04,0.4-0.21,0.61c-0.2,0.24-0.5,0.33-0.72,0.33h-4.55
		c-0.65,0-1.15-0.6-0.97-1.21c0.23-0.75,0.55-1.37,0.96-1.86c0.61-0.72,1.44-1.07,2.47-1.07c0.94,0,1.68,0.33,2.23,0.98
		c0.39,0.45,0.64,1.07,0.77,1.88c0.02,0.12,0.02,0.15,0.02,0.25l0,0V28.18z"/>
	<path class="st1" d="M94.1,25.33c-0.14,0.33-0.36,0.53-0.94,0.55c-0.23,0.01-0.44-0.1-0.51-0.11c-0.27-0.06-0.62-0.05-1-0.03
		c-0.41,0.02-1.07,0.28-1.29,0.41c-0.74,0.46-1.57,0.64-2.47,2.25c-0.16,0.28-0.22,0.42-0.26,0.69v10.47c0,0.54-0.44,0.97-1,0.97
		h-1.88c-0.55,0-1-0.43-1-0.97V23.44c0-0.06,0.01-0.12,0.02-0.18c0.01-0.05,0.02-0.09,0.04-0.13c0.11-0.35,0.43-0.62,0.82-0.67
		l1.89-0.21c0.59-0.07,1.11,0.38,1.11,0.97v1.37c0.32-0.5,0.97-1.36,2.01-1.96c0.24-0.14,0.72-0.41,1.4-0.57
		c0.36-0.08,0.72-0.13,1.1-0.13c0.39,0,0.78,0.04,1.19,0.13c0.55,0.11,0.68,0.82,0.77,1.12C94.43,24.28,94.35,24.68,94.1,25.33z"/>
	<path class="st1" d="M164.99,25.29c-0.14,0.33-0.36,0.53-0.94,0.55c-0.23,0.01-0.44-0.1-0.51-0.11c-0.27-0.06-0.62-0.05-1-0.03
		c-0.41,0.02-1.07,0.28-1.29,0.41c-0.74,0.46-1.57,0.64-2.47,2.26c-0.16,0.28-0.22,0.42-0.26,0.69V39.6c0,0.54-0.44,0.98-1,0.98
		h-1.88c-0.55,0-1-0.43-1-0.98V23.39c0-0.06,0.01-0.12,0.02-0.18c0.01-0.05,0.02-0.09,0.04-0.13c0.11-0.35,0.43-0.62,0.82-0.67
		l1.89-0.21c0.59-0.07,1.11,0.38,1.11,0.98v1.38c0.32-0.5,0.97-1.37,2.01-1.97c0.24-0.14,0.72-0.41,1.4-0.57
		c0.36-0.08,0.72-0.13,1.1-0.13c0.39,0,0.78,0.04,1.19,0.13c0.55,0.11,0.68,0.82,0.77,1.13C165.32,24.23,165.24,24.63,164.99,25.29z
		"/>
</g>
<g>
	<g>
		<path class="st2" d="M-172.04,177.76c-0.52-0.11-1.04-0.13-1.56-0.12c-1.78,0.01-3.56,0-5.35,0c-1.43,0-2.52,0.99-2.64,2.4
			c-0.01,0.14,0,0.28,0,0.42c0,11.05,0.01,22.11-0.01,33.16c0,1.72,1.22,2.95,2.96,2.95c9.01-0.02,18.02-0.02,27.03,0
			c1.74,0,2.96-1.23,2.96-2.95c-0.03-7.83,0-15.66-0.04-23.49c0-0.62,0.5-1.13,0.25-1.74c-0.23-0.57-0.24-1.15-0.23-1.75
			c0-0.54,0-1.08,0-1.62c0-0.78,0.38-1.5,0.05-2.36c-0.25-0.66-0.05-1.5-0.05-2.26c0-0.22-0.03-0.44-0.06-0.66
			c-0.15-1.11-1.28-1.95-2.21-2.14c-0.83-0.16-1.6-0.08-2.41,0.01c-1.09,0.11-2.2,0.04-3.3,0.03c-0.53-0.01-1.05,0.02-1.56,0.12"/>
		<path class="st2" d="M-152.1,177.28c0.02-0.52,0.02-1.04,0.06-1.56c0.11-1.38,0.89-2.3,2.1-2.88c0.02-0.01,0.05,0.01,0.06,0
			c0.72-0.58,1.48-0.85,2.35-0.3c0.18,0.11,0.4,0.06,0.6,0.06c6.45,0,12.89,0,19.34,0c0.18,0,0.35,0,0.54-0.04
			c1.08-0.26,1.39-0.67,1.26-1.75c-0.01-0.06-0.02-0.14-0.06-0.18c-0.81-0.67-0.93-1.65-1.14-2.58c-0.23-1-0.44-2.02-0.74-3
			c-0.52-1.65-1.49-2.71-3.58-2.75c-3.96-0.08-7.93-0.04-11.89-0.01c-1.72,0.01-3.15,1.06-3.55,2.69c-0.33,1.34-0.68,2.68-1.02,4.02
			c-0.17,0.66-0.49,1.24-1.02,1.68"/>
		<path class="st2" d="M-171.98,177.82c0.37,0.79,0.23,1.64,0.24,2.46c0.02,1.53,0.75,2.28,2.29,2.28c2.88,0,5.77,0,8.65,0
			c1.53,0,2.27-0.75,2.29-2.28c0.01-0.8-0.16-1.63,0.23-2.4c0.02-0.05,0.01-0.12,0-0.18c-0.17-0.81-1.29-1.73-2.16-1.74
			c-3.12-0.01-6.25,0-9.37-0.01c-0.62,0-1.13,0.24-1.49,0.73c-0.26,0.34-0.53,0.68-0.67,1.11"/>
		<path class="st2" d="M-125.85,172.17c0.46,0.26,0.9,0.56,1.39,0.77c1.13,0.49,1.69,1.37,1.92,2.53c0.08,0.38,0.19,0.76,0.42,1.08"
			/>
		<path class="st2" d="M-122.25,182.8c-0.33,0.69-0.92,0.86-1.62,0.84c-0.61-0.01-1.23-0.05-1.8,0.24
			c-0.14,0.07-0.23,0.04-0.37,0.01c-1.6-0.4-3.2-0.4-4.8,0c-0.14,0.03-0.23,0.07-0.37,0c-0.53-0.27-1.1-0.25-1.68-0.25
			c-3.06,0.01-6.13,0.02-9.19-0.01c-0.56-0.01-1.04,0.34-1.56,0.29c-0.5-0.05-0.97-0.3-1.5-0.29c-1.06,0.03-2.12,0.01-3.18,0.01"/>
		<path class="st2" d="M-131.02,184.01c0,0.9,0,1.8,0,2.7c-0.01,1.3,0.53,2.01,1.92,2.09c0.6,0.03,1.2,0.01,1.8-0.06
			c0.88-0.1,1.43-0.85,1.44-1.91c0.01-0.94,0-1.88,0-2.82"/>
		<path class="st2" d="M-154.32,209.53c-1.56,0.13-3.12,0.04-4.69,0.06c-1.96,0.02-3.92,0-5.89,0"/>
		<path class="st2" d="M-154.32,199.92c-0.36,0.02-0.72,0.06-1.08,0.06c-3.16,0-6.33,0-9.49,0"/>
		<path class="st2" d="M-143.57,184.07c0.08,0.96,0.12,1.92,0,2.88c-0.18,1.35-0.74,1.83-2.1,1.87c-0.87,0.02-1.72-0.1-2.58-0.19"/>
		<path class="st2" d="M-134.38,178.18c-1.92-0.09-3.84-0.09-5.77,0"/>
		<path class="st2" d="M-159.37,190.37c-1.84,0-3.68,0-5.53,0"/>
		<path class="st2" d="M-170.36,197.61c-0.27-0.01-0.43,0.16-0.6,0.33c-0.72,0.72-1.43,1.45-2.16,2.16c-0.74,0.72-1,0.72-1.74,0
			c-0.26-0.26-0.51-0.53-0.79-0.77c-0.15-0.13-0.1-0.28-0.12-0.43"/>
		<path class="st2" d="M-170.3,188.03c-0.24-0.03-0.43,0.05-0.61,0.23c-0.69,0.72-1.39,1.41-2.1,2.11
			c-0.17,0.17-0.34,0.34-0.54,0.48c-0.32,0.21-0.64,0.29-0.96-0.05c-0.34-0.36-0.7-0.7-1.08-1.02c-0.18-0.15-0.17-0.31-0.17-0.49"/>
		<path class="st2" d="M-170.36,207.22c-0.28-0.03-0.43,0.16-0.6,0.33c-0.72,0.72-1.43,1.45-2.16,2.16c-0.74,0.72-1,0.72-1.74,0
			c-0.26-0.26-0.51-0.53-0.79-0.77c-0.15-0.13-0.1-0.28-0.12-0.43"/>
	</g>
</g>
<g>
	<path class="st3" d="M23.07,46.72c-1.52,0-3.05,0-4.57,0c-0.48,0-0.86-0.19-1.07-0.64c-0.17-0.38-0.15-0.76,0.09-1.1
		c0.23-0.32,0.55-0.47,0.95-0.47c3.07,0,6.14,0,9.2,0c0.72,0,1.18,0.45,1.17,1.11c-0.01,0.64-0.47,1.09-1.2,1.09
		C26.12,46.73,24.6,46.72,23.07,46.72z"/>
	<path class="st3" d="M23.1,35.69c1.49,0,2.98,0,4.46,0c0.81,0,1.29,0.42,1.28,1.11c-0.01,0.68-0.49,1.1-1.31,1.1
		c-2.98,0-5.95,0-8.93,0c-0.81,0-1.29-0.43-1.28-1.12c0.01-0.69,0.48-1.09,1.3-1.09C20.12,35.68,21.61,35.69,23.1,35.69z"/>
	<path class="st3" d="M14.18,43.55c0.01,0.25-0.14,0.52-0.37,0.75c-0.99,0.99-1.97,1.98-2.97,2.96c-0.53,0.52-1.13,0.53-1.66,0.02
		c-0.52-0.49-1.03-1-1.52-1.52c-0.47-0.49-0.49-1.14-0.06-1.58c0.44-0.46,1.09-0.44,1.63,0.03c0.27,0.24,0.48,0.72,0.8,0.68
		c0.3-0.04,0.54-0.46,0.8-0.72c0.5-0.49,0.98-0.99,1.49-1.48c0.35-0.34,0.78-0.42,1.22-0.23C13.95,42.65,14.17,42.99,14.18,43.55z"
		/>
	<path class="st3" d="M14.17,25.87c0.01,0.3-0.15,0.56-0.37,0.79c-0.99,0.99-1.97,1.98-2.97,2.96c-0.54,0.53-1.15,0.51-1.7-0.03
		c-0.49-0.47-0.97-0.95-1.44-1.44c-0.5-0.52-0.52-1.17-0.09-1.62c0.44-0.46,1.09-0.44,1.62,0.04c0.26,0.23,0.51,0.66,0.76,0.66
		c0.34,0,0.57-0.46,0.84-0.73c0.5-0.48,0.98-0.99,1.49-1.47c0.35-0.34,0.79-0.41,1.23-0.21C13.96,25,14.18,25.35,14.17,25.87z"/>
	<path class="st3" d="M14.18,34.69c0.02,0.28-0.13,0.54-0.36,0.77c-0.99,0.99-1.97,1.98-2.97,2.96c-0.55,0.54-1.15,0.53-1.7,0
		c-0.5-0.48-1-0.98-1.48-1.48c-0.49-0.51-0.5-1.18-0.04-1.62c0.44-0.42,1.07-0.4,1.58,0.05c0.27,0.24,0.5,0.74,0.8,0.69
		c0.31-0.05,0.57-0.48,0.84-0.75c0.5-0.49,0.98-1,1.49-1.47c0.36-0.33,0.79-0.39,1.23-0.18C13.96,33.85,14.17,34.18,14.18,34.69z"/>
	<path class="st3" d="M20.95,26.86c0.75,0,1.51-0.01,2.26,0c0.76,0.01,1.23,0.44,1.23,1.11c-0.01,0.66-0.48,1.09-1.25,1.09
		c-1.54,0.01-3.09,0.01-4.63,0c-0.76,0-1.23-0.44-1.23-1.11c0.01-0.67,0.47-1.08,1.25-1.09C19.37,26.85,20.16,26.86,20.95,26.86z"/>
	<path class="st3" d="M28.85,27.95c0.01,0.61-0.46,1.1-1.06,1.11c-0.6,0.02-1.14-0.51-1.13-1.11c0.01-0.58,0.52-1.09,1.1-1.09
		C28.36,26.86,28.84,27.34,28.85,27.95z"/>
	<path class="st3" d="M43.72,17.84c-0.63,0-1.25,0.01-1.88,0c-0.7-0.02-1.16-0.43-1.18-1.05c-0.03-0.63,0.44-1.13,1.16-1.14
		c1.29-0.03,2.57-0.03,3.86,0c0.68,0.02,1.14,0.51,1.13,1.11c-0.01,0.61-0.48,1.04-1.16,1.08c-0.04,0-0.07,0-0.11,0
		C44.93,17.84,44.33,17.84,43.72,17.84z"/>
	<path class="st3" d="M49.03,16.74c-0.01-0.61,0.45-1.1,1.05-1.13c0.6-0.02,1.14,0.5,1.14,1.11c0,0.59-0.5,1.08-1.09,1.09
		C49.52,17.81,49.04,17.34,49.03,16.74z"/>
	<path class="st3" d="M38.45,16.73c-0.01,0.6-0.49,1.08-1.09,1.08c-0.6,0-1.09-0.48-1.1-1.08c-0.01-0.6,0.53-1.14,1.13-1.12
		C37.97,15.63,38.45,16.13,38.45,16.73z"/>
	<path class="st4" d="M14,19.82c2.76,0.01,5.51,0.01,8.27,0c0.59,0,0.82-0.25,0.82-0.85c0.01-0.72,0.01-1.43,0-2.15
		c-0.01-0.64-0.22-0.85-0.87-0.85c-1.36,0-2.72,0-4.08,0c-1.36,0-2.72,0-4.08,0c-0.71,0-0.9,0.2-0.91,0.92c0,0.7-0.01,1.4,0,2.09
		C13.17,19.58,13.4,19.82,14,19.82z"/>
	<path class="st4" d="M30.66,17.48c-1.62-0.01-3.24,0.01-4.86-0.01c-0.37,0-0.54,0.08-0.5,0.48c0.03,0.38,0.01,0.77,0.01,1.16
		c-0.03,1.64-1.21,2.89-2.85,2.9c-2.87,0.03-5.74,0.03-8.61,0c-1.66-0.02-2.86-1.27-2.88-2.94c0-0.31-0.04-0.63,0.01-0.94
		c0.09-0.59-0.17-0.69-0.7-0.68c-1.49,0.03-2.98,0.01-4.47,0.01c-1.25,0-1.69,0.44-1.69,1.69c0,5.01,0,10.01,0,15.02
		c0,5.1,0,10.2,0,15.29c0,1.06,0.5,1.59,1.53,1.59c8.34,0,16.67,0,25.01,0c0.98,0,1.5-0.53,1.5-1.5c0-10.2,0-20.39,0-30.59
		C32.15,17.99,31.66,17.49,30.66,17.48z"/>
	<circle class="st4" cx="35.61" cy="24.29" r="1.25"/>
	<path class="st4" d="M14,19.82c2.76,0.01,5.51,0.01,8.27,0c0.59,0,0.82-0.25,0.82-0.85c0.01-0.72,0.01-1.43,0-2.15
		c-0.01-0.64-0.22-0.85-0.87-0.85c-1.36,0-2.72,0-4.08,0c-1.36,0-2.72,0-4.08,0c-0.71,0-0.9,0.2-0.91,0.92c0,0.7-0.01,1.4,0,2.09
		C13.17,19.58,13.4,19.82,14,19.82z"/>
	<circle class="st4" cx="35.61" cy="24.29" r="1.25"/>
	<path class="st4" d="M25.8,17.47c-0.37,0-0.54,0.08-0.5,0.48c0.03,0.38,0.01,0.77,0.01,1.16c-0.03,1.64-1.21,2.89-2.85,2.9
		c-2.87,0.03-5.74,0.03-8.61,0c-1.66-0.02-2.86-1.27-2.88-2.94c0-0.31-0.04-0.63,0.01-0.94c0.09-0.59-0.17-0.69-0.7-0.68
		c-1.49,0.03-2.98,0.01-4.47,0.01c-1.25,0-1.69,0.44-1.69,1.69c0,5.01,0,10.01,0,15.02c0,5.1,0,10.2,0,15.29
		c0,1.06,0.5,1.59,1.53,1.59c8.34,0,16.67,0,25.01,0c0.98,0,1.5-0.53,1.5-1.5c0-10.2,0-20.39,0-30.59c0-0.99-0.5-1.49-1.5-1.5
		C29.04,17.47,27.42,17.49,25.8,17.47z"/>
	<path class="st4" d="M30.66,17.48c-1.62-0.01-3.24,0.01-4.86-0.01c-0.37,0-0.54,0.08-0.5,0.48c0.03,0.38,0.01,0.77,0.01,1.16
		c-0.03,1.64-1.21,2.89-2.85,2.9c-2.87,0.03-5.74,0.03-8.61,0c-1.66-0.02-2.86-1.27-2.88-2.94c0-0.31-0.04-0.63,0.01-0.94
		c0.09-0.59-0.17-0.69-0.7-0.68c-1.49,0.03-2.98,0.01-4.47,0.01c-1.25,0-1.69,0.44-1.69,1.69c0,5.01,0,10.01,0,15.02
		c0,5.1,0,10.2,0,15.29c0,1.06,0.5,1.59,1.53,1.59c8.34,0,16.67,0,25.01,0c0.98,0,1.5-0.53,1.5-1.5c0-10.2,0-20.39,0-30.59
		C32.15,17.99,31.66,17.49,30.66,17.48z"/>
	<path class="st4" d="M14,19.82c2.76,0.01,5.51,0.01,8.27,0c0.59,0,0.82-0.25,0.82-0.85c0.01-0.72,0.01-1.43,0-2.15
		c-0.01-0.64-0.22-0.85-0.87-0.85c-1.36,0-2.72,0-4.08,0c-1.36,0-2.72,0-4.08,0c-0.71,0-0.9,0.2-0.91,0.92c0,0.7-0.01,1.4,0,2.09
		C13.17,19.58,13.4,19.82,14,19.82z"/>
	<circle class="st4" cx="35.61" cy="24.29" r="1.25"/>
	<path class="st4" d="M30.66,17.48c-1.62-0.01-3.24,0.01-4.86-0.01c-0.37,0-0.54,0.08-0.5,0.48c0.03,0.38,0.01,0.77,0.01,1.16
		c-0.03,1.64-1.21,2.89-2.85,2.9c-2.87,0.03-5.74,0.03-8.61,0c-1.66-0.02-2.86-1.27-2.88-2.94c0-0.31-0.04-0.63,0.01-0.94
		c0.09-0.59-0.17-0.69-0.7-0.68c-1.49,0.03-2.98,0.01-4.47,0.01c-1.25,0-1.69,0.44-1.69,1.69c0,5.01,0,10.01,0,15.02
		c0,5.1,0,10.2,0,15.29c0,1.06,0.5,1.59,1.53,1.59c8.34,0,16.67,0,25.01,0c0.98,0,1.5-0.53,1.5-1.5c0-10.2,0-20.39,0-30.59
		C32.15,17.99,31.66,17.49,30.66,17.48z"/>
	<path class="st4" d="M14,19.82c2.76,0.01,5.51,0.01,8.27,0c0.59,0,0.82-0.25,0.82-0.85c0.01-0.72,0.01-1.43,0-2.15
		c-0.01-0.64-0.22-0.85-0.87-0.85c-1.36,0-2.72,0-4.08,0c-1.36,0-2.72,0-4.08,0c-0.71,0-0.9,0.2-0.91,0.92c0,0.7-0.01,1.4,0,2.09
		C13.17,19.58,13.4,19.82,14,19.82z"/>
	<circle class="st4" cx="35.61" cy="24.29" r="1.25"/>
	<path class="st3" d="M56.21,15.11c0,0.06,0.01,0.12,0.01,0.19c0,1.66-0.02,3.31,0.01,4.97c0.01,0.45-0.1,0.58-0.57,0.58
		c-3.46-0.02-6.91-0.01-10.37-0.01c-0.18,0-0.37,0-0.55,0c-1.02,0-2.04,0-3.06,0c-2.25,0-4.5-0.01-6.75,0.01
		c-0.46,0-0.59-0.12-0.57-0.58c0.03-0.68,0.06-1.37-0.05-2.04c-0.25-1.5-1.16-2.47-2.64-2.86c-0.13-0.03-0.22-0.08-0.28-0.14
		l-2.57,0.01c-0.06,0.02-0.14,0.02-0.23,0.02c-1.07-0.02-2.13-0.02-3.2,0c-0.29,0-0.46-0.11-0.63-0.34
		c-0.57-0.77-1.34-1.18-2.31-1.18c-2.87,0-5.74,0-8.61,0c-0.95,0-1.72,0.39-2.27,1.15c-0.22,0.3-0.44,0.37-0.78,0.37
		c-1.67-0.01-3.35-0.01-5.02-0.01c-2.41,0-3.85,1.44-3.85,3.84c0,10.1,0,20.21,0,30.31c0,2.38,1.47,3.85,3.85,3.85
		c8.24,0,16.49,0,24.73,0c2.42,0,3.88-1.46,3.88-3.89c0-6.99,0-13.99,0-20.98c0-0.13,0.01-0.26,0-0.39
		c-0.02-0.24,0.08-0.31,0.32-0.3c0.57,0.02,1.14,0.03,1.71,0.01c1.6-0.06,2.63-1.1,2.67-2.71c0.02-0.53,0.01-1.07,0-1.6
		c-0.01-0.27,0.07-0.4,0.37-0.39c0.75,0,1.5,0,2.24,0c1.02,0,2.04,0,3.06,0c1.06,0,2.12,0,3.18,0c0.04,0,0.08,0,0.13,0
		c0.02,0,0.03,0.01,0.05,0.01c0.26,0.02,0.32,0.14,0.31,0.39c-0.01,0.55-0.01,1.1,0,1.66c0.02,0.92,0.39,1.67,1.17,2.2
		c0.5,0.34,1.41,0.5,2.32,0.5v-2.27c-0.69,0-1.25-0.56-1.25-1.25c0-0.65,0.5-1.17,1.14-1.23c0.04,0,0.07-0.02,0.11-0.02
		c0.04,0,0.07,0.02,0.11,0.02h0c0.63,0.06,1.14,0.58,1.14,1.22c0,0.69-0.56,1.25-1.25,1.25v2.27c0.91,0,1.83-0.16,2.32-0.5
		c0.77-0.52,1.14-1.28,1.17-2.2c0.01-0.55,0.01-1.1,0-1.66c0-0.23,0.05-0.35,0.27-0.38l1.15,0l0.2,0c-0.02,0,0.17,0,0.19,0
		c0.69,0,1.25-0.56,1.25-1.25c0-0.22,0-0.44,0-0.66c0-0.1,0-0.2,0-0.3c0-1.92,0-3.83,0-5.75L56.21,15.11z M14.07,15.96
		c1.36,0,2.72,0,4.08,0c1.36,0,2.72,0,4.08,0c0.65,0,0.86,0.21,0.87,0.85c0.01,0.72,0.01,1.43,0,2.15c-0.01,0.6-0.23,0.85-0.82,0.85
		c-2.76,0.01-5.51,0.01-8.27,0c-0.6,0-0.83-0.24-0.84-0.84c-0.01-0.7,0-1.4,0-2.09C13.17,16.16,13.36,15.97,14.07,15.96z
		 M32.15,49.56c0,0.97-0.53,1.5-1.5,1.5c-8.34,0-16.67,0-25.01,0c-1.03,0-1.53-0.52-1.53-1.59c0-5.1,0-10.2,0-15.29
		c0-5.01,0-10.01,0-15.02c0-1.25,0.44-1.69,1.69-1.69c1.49,0,2.98,0.02,4.47-0.01c0.53-0.01,0.79,0.09,0.7,0.68
		c-0.05,0.31-0.01,0.62-0.01,0.94c0.02,1.67,1.21,2.92,2.88,2.94c2.87,0.03,5.74,0.03,8.61,0c1.64-0.02,2.82-1.27,2.85-2.9
		c0.01-0.39,0.03-0.78-0.01-1.16c-0.04-0.4,0.13-0.49,0.5-0.48c1.62,0.02,3.24,0,4.86,0.01c1,0.01,1.5,0.5,1.5,1.5
		C32.15,29.17,32.15,39.37,32.15,49.56z M35.61,25.54c-0.69,0-1.25-0.56-1.25-1.25c0-0.69,0.56-1.25,1.25-1.25
		c0.69,0,1.25,0.56,1.25,1.25C36.86,24.98,36.3,25.54,35.61,25.54z"/>
	<g>
		<path class="st3" d="M33.91,4.57c-0.31,1.17-0.59,2.35-0.87,3.53c-0.06,0.25-0.12,0.33-0.43,0.31c-0.84-0.06-1.69-0.06-2.54-0.02
			c-0.64,0.03-1.05,0.54-1.02,1.15c0.03,0.59,0.45,1,1.08,1.03c0.37,0.02,0.74,0,1.1,0.01c0.19,0.01,0.44-0.08,0.49,0.22
			c0.05,0.27-0.21,0.26-0.35,0.34c-1.45,0.8-2.27,2.01-2.31,3.69c-0.01,0.28-0.08,0.39-0.25,0.43l2.57-0.01
			c-0.1-0.09-0.14-0.21-0.13-0.41c0.05-1.07,0.89-1.9,2.02-1.94c0.74-0.02,1.47-0.01,2.21-0.01c2.76,0,5.51,0,8.27,0v-2.21
			c-2.95,0-5.9,0-8.85-0.01c-0.05,0-0.11-0.02-0.21-0.05c0.49-1.94,0.93-3.89,1.48-5.81c0.27-0.93,1.07-1.4,2.04-1.41
			c1.85-0.01,3.69,0,5.54,0V1.19c-1.84,0-3.68-0.01-5.52,0C36.12,1.2,34.44,2.54,33.91,4.57z"/>
		<path class="st3" d="M56.12,11.13c-0.14-0.08-0.4-0.07-0.35-0.34c0.05-0.3,0.3-0.21,0.49-0.22c0.37-0.01,0.74,0.01,1.1-0.01
			c0.62-0.03,1.05-0.45,1.08-1.03c0.03-0.61-0.38-1.12-1.02-1.15c-0.84-0.04-1.69-0.03-2.54,0.02c-0.31,0.02-0.37-0.06-0.43-0.31
			c-0.28-1.18-0.56-2.36-0.87-3.53c-0.53-2.03-2.21-3.36-4.31-3.37c-1.84-0.01-3.69,0-5.53,0V3.4c1.85,0,3.71-0.01,5.55,0
			c0.97,0.01,1.77,0.48,2.04,1.41c0.56,1.92,1,3.87,1.48,5.81c-0.11,0.02-0.16,0.05-0.21,0.05c-2.95,0-5.91,0-8.86,0.01v2.21
			c2.76,0,5.52,0,8.28,0c0.74,0,1.47-0.02,2.21,0.01c1.13,0.03,1.93,0.85,1.98,1.93c0.01,0.2,0.01,0.42,0.01,0.42l2.21,0.01
			c0,0,0.01-0.16,0.01-0.43C58.39,13.15,57.58,11.93,56.12,11.13z"/>
	</g>
</g>
</svg>
