<?xml version="1.0" encoding="utf-8"?>
<!-- Generator: Adobe Illustrator 24.1.2, SVG Export Plug-In . SVG Version: 6.00 Build 0)  -->
<svg version="1.1" id="Layer_1" xmlns="http://www.w3.org/2000/svg" xmlns:xlink="http://www.w3.org/1999/xlink" x="0px" y="0px"
	 viewBox="0 0 140.26 127.7" style="enable-background:new 0 0 140.26 127.7;" xml:space="preserve">
<style type="text/css">
	.st0{fill:#A42E43;}
</style>
<path class="st0" d="M51.47,16.03c0.86-8.59,8.05-15.22,16.7-15.24c18.23-0.05,36.46-0.06,54.69,0c9.23,0.03,16.65,7.34,16.77,16.56
	c0.13,9.38,0.04,18.77,0.04,28.15c0,21.46,0,42.92,0,64.38c0,9.94-7.4,17.36-17.37,17.36c-17.87,0.01-35.74,0.01-53.61,0
	c-9.75,0-17.21-7.29-17.3-17.02c-0.07-7.86-0.03-15.71,0-23.57c0.01-3.82,2.61-6.51,6.22-6.53c3.62-0.02,6.27,2.75,6.28,6.62
	c0.02,7.63,0,15.27,0.01,22.9c0,3.35,1.7,5.05,5.05,5.06c17.74,0.01,35.47,0,53.21,0c3.33,0,5.02-1.74,5.02-5.1
	c0-30.35,0-60.7,0-91.05c0-3.53-1.67-5.21-5.18-5.21c-17.69,0-35.38,0-53.08,0c-3.34,0-5.03,1.71-5.03,5.07
	c0,7.68,0.02,15.35,0,23.03c-0.01,2.77-1.25,4.87-3.82,5.97c-2.4,1.02-4.67,0.61-6.64-1.12c-1.16-1.01-1.88-2.31-1.97-3.86
	C51.32,40.18,51.32,18.47,51.47,16.03z"/>
<path class="st0" d="M92.29,57.78c-5.62-5.61-10.95-10.88-16.22-16.19c-3.24-3.27-2.42-8.33,1.61-10.26
	c2.45-1.17,5.2-0.64,7.28,1.44c9.59,9.58,19.18,19.17,28.75,28.76c0.81,0.81,2.27,1.52,2.2,2.53c-0.06,0.86-1.4,1.63-2.19,2.42
	c-9.62,9.62-19.23,19.24-28.86,28.84c-1.99,1.98-4.82,2.49-7.19,1.36c-2.45-1.16-3.81-3.59-3.55-6.39c0.15-1.59,0.92-2.87,2.04-3.98
	c5.05-5.04,10.1-10.09,15.14-15.14c0.22-0.22,0.42-0.45,0.71-0.77c-0.57-0.28-1.1-0.17-1.59-0.17c-27.66-0.01-55.31,0-82.97-0.01
	c-3.5,0-5.87-1.69-6.66-4.71c-0.98-3.74,1.74-7.5,5.59-7.74c0.4-0.02,0.81-0.02,1.21-0.02c27.66,0,55.31,0,82.97,0
	C91,57.78,91.43,57.78,92.29,57.78z"/>
</svg>
