<?xml version="1.0" encoding="utf-8"?>
<!-- Generator: Adobe Illustrator 24.1.2, SVG Export Plug-In . SVG Version: 6.00 Build 0)  -->
<svg version="1.1" id="Layer_1" xmlns="http://www.w3.org/2000/svg" xmlns:xlink="http://www.w3.org/1999/xlink" x="0px" y="0px"
	 viewBox="0 0 150 136.74" style="enable-background:new 0 0 150 136.74;" xml:space="preserve">
<style type="text/css">
	.st0{fill:#A42E43;}
</style>
<path class="st0" d="M148.59,68.61c0,16.26,0.03,32.52-0.01,48.78c-0.02,8.92-5.84,16-14.5,17.81c-1.26,0.26-2.54,0.36-3.82,0.36
	c-18.92,0-37.85,0.01-56.77,0C63,135.54,55.17,127.8,55.09,117.3c-0.06-8.22-0.03-16.45-0.01-24.67c0.01-4.11,2.82-6.99,6.69-6.97
	c3.79,0.02,6.56,2.92,6.57,6.95c0.02,8.13,0,16.26,0.01,24.39c0,3.45,1.82,5.27,5.28,5.27c18.73,0.01,37.47,0.01,56.2,0
	c3.83,0,5.53-1.74,5.53-5.62c0-32.09,0-64.18,0-96.27c0-3.61-1.82-5.44-5.41-5.44c-18.64,0-37.28,0-55.92,0
	c-4.04,0-5.68,1.65-5.68,5.72c0,8.03,0.03,16.07-0.01,24.1c-0.02,4.78-4.44,7.98-8.83,6.4c-2.55-0.91-4.1-2.78-4.32-5.49
	c-0.18-2.22-0.1-4.46-0.1-6.7c-0.01-6.28-0.02-12.55,0-18.83C55.12,9.4,62.91,1.64,73.66,1.63c18.92,0,37.85-0.01,56.77,0
	c8.02,0.01,14.82,4.92,17.3,12.44c0.7,2.11,0.86,4.27,0.86,6.47C148.59,36.57,148.59,52.59,148.59,68.61z"/>
<path class="st0" d="M27.02,75.19c0.13,0.67,0.53,0.88,0.82,1.18c5.24,5.25,10.48,10.49,15.72,15.73c2.9,2.9,3.12,7.03,0.51,9.67
	c-2.78,2.81-6.8,2.78-9.76-0.18C23.58,90.89,12.88,80.15,2.13,69.45c-0.75-0.74-0.61-1.12,0.05-1.78
	c10.77-10.73,21.52-21.5,32.29-32.23c2.74-2.73,6.82-2.77,9.47-0.18c2.62,2.57,2.66,6.71-0.04,9.46
	c-5.2,5.28-10.47,10.5-15.72,15.73c-0.42,0.42-0.92,0.76-1.39,1.14c0.09,0.13,0.17,0.26,0.26,0.39c0.55,0,1.1,0,1.64,0
	c29.33,0,58.65,0,87.98,0c3.17,0,5.5,1.48,6.55,4.11c1.03,2.58,0.43,5.39-1.6,7.32c-1.18,1.13-2.61,1.72-4.24,1.76
	c-1.24,0.03-2.47,0.01-3.71,0.01c-28.19,0-56.37,0-84.56,0C28.46,75.19,27.8,75.19,27.02,75.19z"/>
</svg>
